<svg xmlns="http://www.w3.org/2000/svg" xmlns:svg="http://www.w3.org/2000/svg" xmlns:xlink="http://www.w3.org/1999/xlink" id="svg3446" width="640" height="480" version="1.1"><metadata id="metadata3750"/><defs id="defs3448"><clipPath id="clipPath7362" clipPathUnits="userSpaceOnUse"><rect id="rect7364" width="682.67" height="512" x="-85.648" y="0" fill-opacity=".67"/></clipPath></defs><rect style="fill:#060" id="rect3880" width="640" height="480" x="0" y="0"/><rect style="fill:#fff" id="rect3882" width="640" height="342.857" x="0" y="0"/><rect style="fill:#c00" id="rect3884" width="640" height="137.143" x="0" y="0"/><g style="fill:#f8c300" id="g3886" transform="matrix(0.68571429,0,0,0.68571429,-160,-1.5e-6)"><path id="path3888" d="m 672,340.7 a 12.5,12.5 0 0 1 23.3,5.9 l 0,50 9.4,0 0,-50 a 12.5,12.5 0 0 1 23.3,-5.9 29.5,29.5 0 1 0 -56,0"/><path style="fill:#fff" id="path3890" d="m 678.7,327.65 a 20,20 0 0 1 21.3,9.55 20,20 0 0 1 21.3,-9.55 21.5,21.5 0 0 0 -42.6,0"/><path id="w" d="m 695.3,376.627 a 38,38 0 0 1 -63.845,24.316 39.5,39.5 0 0 1 -59.734,17.467 c 3.6496,36.426 58.252,28.989 62.32,-6.4288 17.154,30.115 54.873,21.49 65.91,-15.4 z"/><use id="use3893" width="100%" height="100%" x="0" y="0" transform="matrix(-1,0,0,1,1400,0)" xlink:href="#w"/><path id="r" d="m 658.84,441.31 c -7.6181,16.446 -22.845,19.271 -36.164,5.9953 0,0 5.3539,-3.7831 11.086,-4.826 -1.0748,-4.5744 1.1291,-10.902 4.2354,-14.324 3.2575,2.2264 7.8036,6.6886 8.9598,11.874 8.0291,-1.0394 11.883,1.2815 11.883,1.2815 z"/><use id="use3896" width="100%" height="100%" x="0" y="0" transform="matrix(0.98665754,0.16280937,-0.16280937,0.98665754,140.23845,-103.23923)" xlink:href="#r"/><use id="use3898" width="100%" height="100%" x="0" y="0" transform="matrix(0.94698622,0.32127419,-0.32127419,0.94698622,295.4141,-182.26885)" xlink:href="#r"/><path style="fill:none;stroke:#f8c300;stroke-width:16" id="path3900" d="m 603,478 a 340,340 0 0 1 194,0"/><g id="g3902" transform="translate(700,380)"><g id="g3904" transform="translate(0,-140)"><polygon id="s" points="-488533 -158734 488533 -158734 -301930 415571 0 -513674 301930 415571" transform="scale(4.8669e-5,4.8669e-5)"/></g><g id="h"><use id="use3908" width="100%" height="100%" x="0" y="0" transform="translate(-70,-121.24356)" xlink:href="#s"/><use id="use3910" width="100%" height="100%" x="0" y="0" transform="translate(-121.24356,-70)" xlink:href="#s"/><use id="use3912" width="100%" height="100%" x="0" y="0" transform="translate(-140,0)" xlink:href="#s"/></g><use id="use3914" width="100%" height="100%" x="0" y="0" transform="scale(-1,1)" xlink:href="#h"/></g></g></svg>